<svg width="647" height="534" viewBox="0 0 647 534" fill="none" xmlns="http://www.w3.org/2000/svg">
<path d="M366.666 3.20027C357.866 8.66693 354 16.5336 354 29.3336V38.0003H318.133H282.266L279.866 30.9336C271.2 4.5336 255.6 -5.0664 241.2 7.60027C234.533 13.4669 232.533 18.2669 231.733 30.0003L230.933 40.2669L212.133 41.2003C189.2 42.2669 153.466 44.5336 147.866 45.2003C144 45.7336 143.6 45.3336 141.466 39.3336C135.866 23.6003 124.8 14.0003 115.066 16.0003C103.6 18.4003 96.3997 27.6003 94.6663 42.2669C94.133 46.8003 93.1997 50.0003 92.2663 50.0003C91.333 50.0003 80.533 51.2003 68.133 52.6669C51.733 54.5336 44.933 55.8669 43.1997 57.4669C40.933 59.4669 40.7997 61.4669 41.5997 82.5336C42.933 121.334 38.2663 164.4 25.333 232C3.46632 346.934 -0.267012 377.067 0.932988 425.734C1.86632 458.8 2.39965 459.6 18.7997 454C23.0663 452.4 29.9997 450.934 34.133 450.4C41.333 449.734 41.8663 449.867 46.933 454.534C53.9997 460.8 77.8663 498.667 86.933 517.734C90.933 526 94.933 533.067 95.9997 533.467C96.933 533.867 130.933 529.067 171.6 522.667C318 499.867 374.266 491.2 426 483.334C454.933 478.934 480.8 474.8 483.466 474C494.8 470.8 502 462.934 503.066 452.8L503.6 446.134L512.666 444.667C523.866 442.8 532.666 437.6 535.733 430.934C540.133 421.734 538.4 416.267 525.2 398C491.733 351.734 469.466 296.667 460.133 238C456.8 217.334 454.933 187.867 455.866 170C456.4 159.334 456 145.467 454.666 131.334C453.6 119.2 452 94.8003 451.066 76.9336C450 55.8669 448.933 43.7336 447.866 42.2669C446.533 40.4003 442.8 39.8669 425.866 39.3336L405.466 38.6669L401.866 28.2669C395.866 10.2669 386.8 0.666932 376.133 0.666932C373.066 0.666932 368.933 1.7336 366.666 3.20027ZM382.933 21.3336C384.533 24.2669 386.8 29.2003 387.866 32.2669L389.866 38.0003H378.933H368L368.666 28.9336C369.466 18.5336 371.466 15.0669 376.533 15.6003C378.933 15.8669 380.8 17.6003 382.933 21.3336ZM258.133 19.4669C260.666 22.0003 264.4 29.4669 266.533 36.2669C267.466 39.3336 267.333 39.3336 256.8 39.3336H246V32.6669C246 23.6003 249.333 17.3336 254.4 16.8003C254.933 16.6669 256.533 17.8669 258.133 19.4669ZM125.466 39.4669C127.333 43.2003 128.666 46.4003 128.4 46.6669C127.066 47.7336 110 48.4003 109.333 47.3336C108 45.0669 111.2 34.6669 114 32.4003C118 29.2003 121.2 31.0669 125.466 39.4669ZM391.733 63.3336C391.333 77.3336 387.066 90.6669 382.133 93.3336C375.6 96.6669 371.333 102.934 371.333 108.934C371.333 122.534 384.8 130.4 396.266 123.334C404.4 118.4 407.066 107.867 402.133 99.8669C399.6 95.7336 399.6 95.6003 402.266 87.8669C403.733 83.6003 405.6 74.1336 406.4 66.9336L407.733 54.0003H421.466H435.066L435.866 69.6003C436.4 78.2669 437.866 99.6003 439.066 117.2C440.533 138.134 440.933 149.2 440 149.467C437.866 150.134 368.133 152.534 310.666 154C248.666 155.6 220 157.067 186.666 160.8C150.133 164.8 108.666 172.4 86.2663 179.2C80.133 181.067 77.733 181.334 77.333 180.267C77.0663 179.334 75.8663 170.267 74.6663 160C71.5997 133.2 67.8663 112.134 62.533 89.6003C59.8663 78.6669 58.133 69.4669 58.533 69.0669C59.333 68.2669 110.8 62.6669 125.333 61.8669L132 61.4669L132.933 67.3336C134.4 76.0003 131.066 99.4669 127.6 104C127.066 104.667 124.266 106.534 121.466 108C110.533 113.6 108.533 126.134 117.333 134.934C120.933 138.534 122.8 139.334 127.6 139.334C141.733 139.334 150.666 124.134 142.8 113.334C141.333 111.334 141.466 109.734 143.733 102.8C145.6 96.9336 146.533 89.6003 147.066 76.9336L147.6 59.3336H151.2C153.066 59.3336 168.133 58.4003 184.666 57.3336C201.2 56.4003 227.066 55.0669 242.4 54.5336L270 53.6003V62.1336C270 77.8669 264 97.2003 258.666 98.5336C257.066 98.9336 253.733 101.467 251.466 104C242 114.934 249.333 131.334 263.6 131.334C276.266 131.334 284.533 117.2 278.533 105.734C276.533 101.867 276.666 101.067 280 90.8003C282.533 83.0669 283.866 76.1336 284.4 66.2669L285.066 52.6669L338.533 52.9336L392 53.3336L391.733 63.3336ZM58.933 148.934C58.6663 150.667 58.3997 149.6 58.3997 146.667C58.2663 143.734 58.533 142.4 58.933 143.6C59.1997 144.934 59.1997 147.334 58.933 148.934ZM82.6663 418.534C85.9997 455.067 88.533 485.2 88.2663 485.467C87.9997 485.734 83.333 476.134 77.8663 463.867C67.8663 441.6 62.133 432.934 55.1997 429.334C50.133 426.667 41.0663 426.934 34.3997 429.867L28.933 432.4L27.333 423.734C24.7997 410.667 26.3997 394.8 31.9997 374.667C34.6663 365.067 38.2663 347.334 40.133 334.934C41.8663 322.667 45.733 297.467 48.533 278.934C56.2663 230.534 58.133 212.8 58.933 181.334L59.8663 153.334L68.133 252.667C72.6663 307.334 79.1997 381.867 82.6663 418.534ZM441.466 187.067C441.6 211.867 443.2 229.067 448.133 254.4C458 305.467 480 357.867 510.266 402.267L515.466 410L512.133 411.334C504.8 414.134 493.6 416.8 473.333 420.667C453.2 424.4 167.733 471.467 153.2 473.467C139.2 475.2 132.933 470.4 126 452.4C105.466 399.334 92.6663 346.534 86.133 288C82.7997 258.267 78.6663 200.267 79.733 197.6C80.933 194.534 129.066 183.334 160 178.8C201.333 172.667 236.4 170.534 334.933 168C378.8 166.8 415.6 165.734 416.666 165.467C417.733 165.2 423.733 164.934 430 164.8L441.333 164.667L441.466 187.067ZM99.333 420C99.333 422.8 113.2 460.534 116.666 467.467C121.6 476.934 125.866 481.6 132.4 484.934C138.133 487.734 140.133 488 156.666 487.6C166.533 487.467 183.066 486.4 193.333 485.334C252.933 479.067 266.533 477.467 291.333 473.867C306.4 471.6 341.466 466 369.333 461.2C419.333 452.8 456.533 447.867 477.333 447.067L488 446.667L488.4 450.8C488.666 453.067 488 455.467 487.066 456.267C483.2 459.467 467.866 462.4 412 470.8C362.666 478.134 123.733 515.067 110.4 517.334L106.266 518.134L105.466 509.734C105.066 505.067 103.2 483.6 101.333 462C99.4663 440.4 97.5997 421.2 97.1997 419.6C96.7997 417.6 97.0663 416.8 97.9997 417.334C98.6663 417.734 99.333 419.067 99.333 420Z" fill="black"/>
<path d="M339.333 214.133C319.599 216.399 290.799 226.533 288.666 231.866C288.133 233.466 287.199 246.799 286.666 261.599C285.733 288.266 285.733 288.399 288.666 289.999C293.199 292.399 297.733 290.533 300.533 284.799C305.466 275.199 316.399 268.933 325.333 270.533C330.933 271.599 338.933 280.133 340.133 286.533C341.999 297.066 336.533 309.866 327.066 316.666C320.399 321.466 312.933 321.999 309.333 317.999C306.666 315.066 300.799 314.399 298.266 316.933C293.999 321.199 299.066 331.066 307.066 334.133C312.933 336.399 323.066 335.466 329.733 332.133C335.999 328.933 344.933 320.399 348.933 313.866C351.999 309.066 355.333 297.066 355.333 291.333C355.333 278.533 347.199 264.799 336.133 259.066C328.533 255.066 315.466 254.933 307.733 258.799L301.999 261.599V250.666V239.599L309.066 236.799C318.933 232.799 330.133 230.266 345.866 228.266C354.666 227.066 359.999 225.733 360.799 224.533C362.799 221.199 362.133 216.933 359.066 214.799C355.866 212.533 354.266 212.399 339.333 214.133Z" fill="black"/>
<path d="M221.2 232.799C209.066 235.599 198.8 249.999 194.533 269.999C187.066 305.466 208.8 344.533 235.866 344.666C246.666 344.666 252.666 342.133 260.666 333.999C273.733 320.933 276.4 304.133 269.333 279.999C259.466 246.399 241.066 228.266 221.2 232.799ZM231.733 247.866C244.133 252.933 258.133 281.599 258.266 302.133C258.533 324.533 240.533 337.333 224.933 326.133C218.4 321.333 210.666 306.666 208.533 294.666C205.066 276.133 212.133 253.333 222.666 247.999C227.6 245.599 226.533 245.599 231.733 247.866Z" fill="black"/>
<path d="M359.467 380.133C356 384.533 356 386.667 359.333 390C362.4 393.067 363.733 393.2 367.467 391.2C371.067 389.333 372.667 384.667 370.933 381.333C368 375.6 363.333 375.2 359.467 380.133Z" fill="black"/>
<path d="M295.333 385.467C262.666 390.4 259.466 391.733 261.199 398.533C262.799 404.8 264.799 404.933 298.799 400C337.733 394.267 336.133 394.667 338.799 390.667C340.799 387.6 340.799 387.067 338.799 384C335.866 379.6 333.199 379.733 295.333 385.467Z" fill="black"/>
<path d="M571.599 314.933C570.133 316.266 564.266 326.4 558.533 337.6C547.599 358.666 547.333 360.266 552.933 363.733C558.133 367.066 561.066 364 572.399 342.8C578.399 331.466 583.333 321.066 583.333 319.733C583.333 316.666 579.333 312.666 576.399 312.666C575.199 312.666 573.066 313.733 571.599 314.933Z" fill="black"/>
<path d="M607.199 383.867C596.399 388.4 586.666 392.933 585.466 393.867C581.199 397.467 584.533 406 590.399 406C592.666 406 630.933 390.267 633.733 388.267C637.733 385.2 633.733 375.2 628.533 375.467C627.466 375.467 617.866 379.333 607.199 383.867Z" fill="black"/>
<path d="M602.266 432.799C596.533 434.933 597.066 443.466 603.066 445.733C607.733 447.599 634.933 452.666 639.599 452.666C645.199 452.666 648.399 444.266 643.999 440.666C641.199 438.399 605.466 431.599 602.266 432.799Z" fill="black"/>
</svg>
