<svg width="16" height="9" viewBox="0 0 16 9" fill="none" xmlns="http://www.w3.org/2000/svg">
<path d="M13.7821 0.800243L8.00015 6.58224L2.21815 0.800243C2.02955 0.618085 1.77694 0.517291 1.51475 0.519569C1.25255 0.521847 1.00174 0.627016 0.816331 0.812424C0.630922 0.997832 0.525754 1.24865 0.523475 1.51084C0.521197 1.77304 0.621991 2.02564 0.804149 2.21424L7.29015 8.70024C7.38316 8.79365 7.49385 8.86757 7.61576 8.91771C7.73766 8.96785 7.86834 8.99318 8.00015 8.99224C8.13192 8.99291 8.26251 8.96744 8.38438 8.91732C8.50625 8.8672 8.61697 8.79342 8.71015 8.70024L15.1961 2.21424C15.3783 2.02564 15.4791 1.77304 15.4768 1.51084C15.4745 1.24865 15.3694 0.997832 15.184 0.812424C14.9986 0.627016 14.7477 0.521847 14.4856 0.519569C14.2234 0.517291 13.9708 0.618085 13.7821 0.800243Z" fill="white"/>
</svg>
